<svg xmlns="http://www.w3.org/2000/svg" viewBox="0 0 567.26 568.2"><defs><style>.cls-1{fill:#3c3c3b;}.cls-2{fill:#fff;}.cls-2,.cls-3{stroke:#1d1d1b;stroke-miterlimit:10;}.cls-3{fill:#1d1d1b;}</style></defs><g id="Calque_2" data-name="Calque 2"><polygon class="cls-1" points="566.76 567.12 0.12 568.2 0.48 1.2 566.76 0.12 566.76 567.12"/></g><g id="Calque_1" data-name="Calque 1"><path class="cls-2" d="M9.1-20.28" transform="translate(0 0.36)"/><polygon class="cls-3" points="282.72 283.8 72.12 1.56 140.88 0.84 282.72 283.8"/><polyline class="cls-3" points="422.76 0.84 354.72 0.84 282.63 283.53"/><polygon class="cls-3" points="282.72 283.53 213.6 0.84 283.44 0.84 282.72 283.53"/><polygon class="cls-3" points="282.63 283.53 0.84 71.04 1.2 1.2 282.63 283.53"/><polyline class="cls-3" points="282.81 283.53 1.2 211.44 1.2 143.04"/><polyline class="cls-3" points="282.63 283.71 0.84 353.64 1.2 284.16"/><polyline class="cls-3" points="282.72 283.53 566.4 72.84 566.76 141.96"/><polyline class="cls-3" points="282.63 283.71 497.28 1.56 566.4 0.84"/><polyline class="cls-3" points="282.9 283.71 70.68 567.29 0 567.29"/><polyline class="cls-3" points="282.63 283.89 0.84 495.48 1.2 426.36"/><polyline class="cls-3" points="282.9 283.8 566.4 496.2 566.4 566.04"/><polyline class="cls-3" points="282.81 283.8 212.52 566.76 141.24 566.76"/><polyline class="cls-3" points="282.9 283.8 496.56 566.76 423.84 566.76"/><polyline class="cls-3" points="282.88 283.87 566.04 354.36 566.4 424.92"/><polyline class="cls-3" points="282.72 283.71 566.4 212.88 566.4 283.08"/><polyline class="cls-3" points="282.81 283.89 354 566.4 282.72 566.4"/><ellipse class="cls-3" cx="282.6" cy="283.88" rx="5.64" ry="5.91"/></g></svg>